<svg width="46" height="41" viewBox="0 0 46 41" fill="none" xmlns="http://www.w3.org/2000/svg">
<path fill-rule="evenodd" clip-rule="evenodd" d="M32.635 40.8553C25.2937 40.8553 19.3424 34.904 19.3424 27.5627C19.3424 20.2214 25.2937 14.2701 32.635 14.2701C39.9763 14.2701 45.9276 20.2214 45.9276 27.5627C45.9276 30.586 44.9183 33.3735 43.2182 35.6068L45.8434 40.1381L36.9145 40.1514C35.5716 40.6077 34.1322 40.8553 32.635 40.8553Z" fill="#1C1C1C"/>
<mask id="path-2-outside-1_3154_44254" maskUnits="userSpaceOnUse" x="-0.0177002" y="0" width="35" height="34" fill="black">
<rect fill="white" x="-0.0177002" width="35" height="34"/>
<path fill-rule="evenodd" clip-rule="evenodd" d="M17.9109 31.8572C26.1558 31.8572 32.8395 25.1735 32.8395 16.9286C32.8395 8.68377 26.1558 2 17.9109 2C9.66607 2 2.9823 8.68377 2.9823 16.9286C2.9823 20.324 4.11586 23.4547 6.02518 25.9628L3.07697 31.0518L13.1048 31.0667C14.6129 31.5792 16.2294 31.8572 17.9109 31.8572Z"/>
</mask>
<path fill-rule="evenodd" clip-rule="evenodd" d="M17.9109 31.8572C26.1558 31.8572 32.8395 25.1735 32.8395 16.9286C32.8395 8.68377 26.1558 2 17.9109 2C9.66607 2 2.9823 8.68377 2.9823 16.9286C2.9823 20.324 4.11586 23.4547 6.02518 25.9628L3.07697 31.0518L13.1048 31.0667C14.6129 31.5792 16.2294 31.8572 17.9109 31.8572Z" fill="#FFAD12"/>
<path d="M6.02518 25.9628L7.44079 26.7829L7.98738 25.8394L7.32692 24.9718L6.02518 25.9628ZM3.07697 31.0518L1.66135 30.2317L0.24089 32.6837L3.07454 32.6879L3.07697 31.0518ZM13.1048 31.0667L13.6312 29.5177L13.3763 29.4311L13.1072 29.4307L13.1048 31.0667ZM31.2035 16.9286C31.2035 24.2699 25.2522 30.2212 17.9109 30.2212V33.4932C27.0593 33.4932 34.4755 26.077 34.4755 16.9286H31.2035ZM17.9109 3.63601C25.2522 3.63601 31.2035 9.58731 31.2035 16.9286H34.4755C34.4755 7.78022 27.0593 0.363988 17.9109 0.363988V3.63601ZM4.61831 16.9286C4.61831 9.58731 10.5696 3.63601 17.9109 3.63601V0.363988C8.76252 0.363988 1.34629 7.78022 1.34629 16.9286H4.61831ZM7.32692 24.9718C5.62689 22.7387 4.61831 19.9538 4.61831 16.9286H1.34629C1.34629 20.6943 2.60483 24.1707 4.72344 26.9538L7.32692 24.9718ZM4.49258 31.8719L7.44079 26.7829L4.60957 25.1427L1.66135 30.2317L4.49258 31.8719ZM13.1072 29.4307L3.07939 29.4158L3.07454 32.6879L13.1023 32.7027L13.1072 29.4307ZM17.9109 30.2212C16.4108 30.2212 14.972 29.9734 13.6312 29.5177L12.5783 32.6157C14.2538 33.1851 16.0481 33.4932 17.9109 33.4932V30.2212Z" fill="white" mask="url(#path-2-outside-1_3154_44254)"/>
<circle cx="12.5939" cy="17.3376" r="1.84051" fill="white"/>
<circle cx="17.9109" cy="17.3376" r="1.84051" fill="white"/>
<circle cx="23.2279" cy="17.3376" r="1.84051" fill="white"/>
</svg>
