<svg width="96" height="39" viewBox="0 0 96 39" fill="none" xmlns="http://www.w3.org/2000/svg">
<path d="M7.94191 17.1903C6.36514 17.1903 4.88797 16.9585 3.52697 16.495C2.16597 16.0315 0.987552 15.3282 0 14.4012L2.76348 10.8688C3.60166 11.5641 4.48963 12.0596 5.41909 12.3633C6.34855 12.6669 7.26971 12.8108 8.18257 12.8108C8.6556 12.8108 8.99585 12.7469 9.20332 12.619C9.41079 12.4911 9.51037 12.3153 9.51037 12.0995V12.0516C9.51037 11.8118 9.36099 11.62 9.05394 11.4602C8.75518 11.3004 8.19087 11.1405 7.36099 10.9647C6.48962 10.7729 5.65975 10.5571 4.87137 10.3014C4.08299 10.0456 3.38589 9.72598 2.78838 9.33438C2.19087 8.94278 1.71784 8.4473 1.361 7.8559C1.00415 7.26451 0.829875 6.52927 0.829875 5.64219V5.59424C0.829875 4.80305 0.970954 4.06781 1.26141 3.38851C1.55187 2.70921 1.9668 2.11782 2.52282 1.61434C3.07884 1.11086 3.75934 0.711267 4.58091 0.431555C5.41079 0.143852 6.34855 0 7.41079 0C8.91286 0 10.2324 0.191802 11.361 0.567415C12.4896 0.943028 13.5021 1.51844 14.4066 2.26966L11.8838 6.00981C11.1452 5.44239 10.3651 5.02682 9.55186 4.76309C8.73029 4.49936 7.9585 4.3715 7.23651 4.3715C6.85477 4.3715 6.57261 4.43543 6.38174 4.5633C6.19917 4.69117 6.10788 4.85899 6.10788 5.05879V5.11473C6.10788 5.22661 6.14108 5.33051 6.19917 5.42641C6.25726 5.52231 6.36514 5.61022 6.52282 5.69813C6.6805 5.78604 6.88796 5.86596 7.15353 5.94587C7.41909 6.02579 7.75933 6.10571 8.17427 6.18563C9.16182 6.37743 10.0664 6.6012 10.8714 6.87292C11.6846 7.14464 12.3817 7.48828 12.9627 7.90386C13.5436 8.31943 13.9917 8.82291 14.3153 9.40631C14.6307 9.98971 14.7884 10.701 14.7884 11.5401V11.5881C14.7884 12.4592 14.6224 13.2344 14.2988 13.9296C13.9751 14.6249 13.5187 15.2163 12.9295 15.6958C12.3402 16.1753 11.6183 16.5509 10.7718 16.8067C9.91701 17.0624 8.97925 17.1903 7.94191 17.1903Z" fill="black"/>
<path d="M16.0662 0.311768H21.4687L24.7882 6.12977L28.1077 0.311768H33.5101V16.8867H28.3483V8.67115L24.7799 14.5611H24.6886L21.1118 8.67115V16.8867H16.0662V0.311768Z" fill="black"/>
<path d="M40.7635 0.191895H45.9005L52.4316 16.8867H46.8133L45.9918 14.657H40.5727L39.776 16.8867H34.2407L40.7635 0.191895ZM44.7054 10.725L43.2864 6.69719L41.8673 10.725H44.7054Z" fill="black"/>
<path d="M53.1616 0.311768H60.7301C62.116 0.311768 63.2529 0.479595 64.1492 0.823241C65.0454 1.16689 65.7591 1.62242 66.3069 2.20582C66.7799 2.7093 67.1367 3.27671 67.3691 3.90806C67.6015 4.53941 67.7259 5.28265 67.7259 6.13777V6.18572C67.7259 7.40046 67.4521 8.4314 66.9044 9.26255C66.3566 10.1017 65.6098 10.765 64.672 11.2525L68.282 16.8867H62.3732L59.4438 12.1476H59.4023H58.34V16.8867H53.1616V0.311768ZM60.5724 8.19165C61.1948 8.19165 61.6761 8.0478 62.033 7.76809C62.3898 7.48038 62.5641 7.08879 62.5641 6.5853V6.53735C62.5641 6.00191 62.3898 5.60232 62.033 5.33859C61.6761 5.07486 61.2031 4.94699 60.5973 4.94699H58.34V8.19165H60.5724Z" fill="black"/>
<path d="M73.0372 4.99494H68.4729V0.311768H82.7717V4.99494H78.2157V16.8867H73.0372V4.99494Z" fill="black"/>
<path d="M4.15768 22.0972H16.5809L15.5851 26.0051H7.43568L6.79668 28.5146H14.1909L13.278 32.1348H5.88382L5.21992 34.7641H13.5021L12.5228 38.6721H0L4.15768 22.0972Z" fill="#FCB823"/>
<path d="M18.8464 22.0972H22.8547L26.8547 31.3037L29.1866 22.0972H33.4522L29.2945 38.6721H25.5269L21.3443 29.1299L18.9543 38.6721H14.6887L18.8464 22.0972Z" fill="#FCB823"/>
<path d="M36.0498 22.0972H48.473L47.4771 26.0051H39.3278L38.6888 28.5146H46.083L45.1701 32.1348H37.7759L37.112 34.7641H45.3942L44.4149 38.6721H31.8921L36.0498 22.0972Z" fill="#FCB823"/>
<path d="M50.7385 22.0972H56.5808C57.8754 22.0972 58.9625 22.249 59.8339 22.5447C60.7053 22.8484 61.3941 23.272 61.9086 23.8234C62.3235 24.2629 62.6223 24.7744 62.8132 25.3498C63.004 25.9252 63.0953 26.5486 63.0953 27.2119C63.0953 28.6025 62.7219 29.8092 61.975 30.8482C61.2281 31.8791 60.058 32.6303 58.4646 33.0858L60.8547 38.6721H56.1161L54.058 33.6533H52.1576L50.8962 38.6721H46.5808L50.7385 22.0972ZM55.5103 30.049C56.4812 30.049 57.2613 29.8412 57.8339 29.4336C58.4065 29.018 58.697 28.4586 58.697 27.7394C58.697 27.3078 58.5642 26.9402 58.2986 26.6205C57.9418 26.2369 57.3111 26.0451 56.3982 26.0451H54.0746L53.0538 30.049H55.5103Z" fill="#FCB823"/>
<path d="M70.8048 38.9999C69.8754 38.9999 68.9625 38.856 68.0662 38.5763C67.17 38.2886 66.3733 37.8491 65.6679 37.2497C64.9625 36.6503 64.3982 35.8911 63.9666 34.98C63.5351 34.061 63.3193 32.9661 63.3193 31.6874C63.3193 30.3608 63.56 29.1061 64.0413 27.9073C64.5227 26.7165 65.2032 25.6616 66.0911 24.7426C66.9708 23.8235 68.0247 23.1043 69.2447 22.5608C70.4646 22.0254 71.809 21.7537 73.2861 21.7537C74.0496 21.7537 74.7716 21.8336 75.4438 21.9934C76.116 22.1533 76.7218 22.361 77.2613 22.6248C77.8007 22.8885 78.2737 23.1842 78.6886 23.5278C79.1036 23.8635 79.4438 24.2151 79.7094 24.5827L76.8297 27.5637C76.3733 27.0762 75.8339 26.6686 75.2032 26.3409C74.5725 26.0213 73.8422 25.8534 73.004 25.8534C72.2239 25.8534 71.5102 26.0053 70.8712 26.301C70.2322 26.6047 69.6762 27.0122 69.2115 27.5237C68.7467 28.0352 68.3816 28.6426 68.1243 29.3299C67.8671 30.0171 67.7343 30.7444 67.7343 31.5036C67.7343 32.087 67.8256 32.6065 68.0081 33.046C68.1907 33.4856 68.4397 33.8612 68.7633 34.1489C69.0787 34.4446 69.4521 34.6604 69.8671 34.8122C70.2903 34.9641 70.7301 35.036 71.2032 35.036C71.6347 35.036 72.0164 34.988 72.3567 34.9081C72.6969 34.8202 72.9957 34.7163 73.2612 34.5884L73.8837 32.3428H70.8961L71.7177 28.9782H78.8214L76.6056 37.3376C75.8422 37.8091 74.9708 38.2087 73.9915 38.5204C73.0123 38.8321 71.9583 38.9999 70.8048 38.9999Z" fill="#FCB823"/>
<path d="M96 22.0972L87.3444 32.7502L85.8589 38.6721H81.5436L83.1618 32.2547L80.0415 22.0972H84.6639L86.1909 28.2988L90.8631 22.0972H96Z" fill="#FCB823"/>
</svg>
