<svg width="44" height="52" viewBox="0 0 44 52" fill="none" xmlns="http://www.w3.org/2000/svg">
<path d="M9.99727 32.0651C11.1245 35.7287 13.8884 36.8883 16.9772 35.4616C20.9283 33.6355 23.9065 31.8094 25.4417 27.2145C26.6058 23.7289 24.1301 18.5039 18.9873 20.0584C14.8081 21.3207 7.93187 25.3587 9.99727 32.0651Z" fill="#FFBC16"/>
<path d="M7.30721 42.2684C15.4974 42.1291 19.3746 41.5493 24.9185 37.3721C36.5664 28.5908 34.9828 4.33095 38.21 5.30564C42.7811 6.68663 44.0097 12.6968 43.0369 20.9737C42.2232 27.9037 44.9802 34.7494 36.79 43.4371C29.1669 51.5222 16.4425 53.5035 10.214 49.8148C6.43586 47.5778 2.94587 42.3437 7.30721 42.2684Z" fill="#FFBC16"/>
<path d="M38.2746 4.64377C37.56 4.05028 37.1543 3.47049 37.1589 3.04592C37.1723 2.92075 37.2105 2.79942 37.2715 2.68895C37.3324 2.57847 37.4148 2.48102 37.5139 2.40222L37.4909 2.41592C37.507 2.41592 37.5231 2.39766 37.5393 2.38396C37.6808 2.27681 37.7994 2.14282 37.8881 1.98979C37.9768 1.83677 38.0338 1.66778 38.0558 1.4927C38.0779 1.31762 38.0644 1.13995 38.0164 0.970053C37.9683 0.800161 37.8865 0.641453 37.7758 0.503193C37.6652 0.364933 37.5278 0.249891 37.3717 0.164782C37.2156 0.0796734 37.044 0.026203 36.8668 0.00749183C36.6896 -0.0112193 36.5105 0.00520375 36.3398 0.0558024C36.1691 0.106401 36.0103 0.190162 35.8727 0.302195C35.8387 0.33163 35.8064 0.362872 35.7758 0.395783C35.3977 0.710748 35.0887 1.09906 34.8679 1.53678C34.6471 1.9745 34.5191 2.45237 34.4919 2.94092C34.4458 4.2329 35.1419 5.48606 36.5665 6.6639C38.3553 8.14762 38.8532 11.914 38.0487 17.8488C37.8827 19.07 37.7329 20.2935 37.5877 21.4759C36.7832 28.0476 36.0248 34.2587 32.7238 38.5729C29.3675 42.9624 25.488 45.9892 17.4661 46.4936C12.6253 46.8155 9.60784 44.7611 8.18326 43.1633C8.18326 43.1633 8.18326 43.1496 8.18326 43.1519C9.89638 43.5658 11.6631 43.7197 13.4229 43.6084C18.2429 43.2112 23.5655 40.2963 25.7923 38.3583C30.7368 34.0624 33.5076 26.9451 34.9598 21.743C36.5066 16.203 37.1266 10.7042 36.7371 9.04469C36.5388 8.24084 36.1369 7.50025 35.5695 6.89281C35.002 6.28536 34.2876 5.83107 33.4937 5.5728C32.1498 5.15052 29.9945 5.13682 27.3598 7.46283C25.6862 8.93969 22.3299 10.4166 18.4435 12.1263C15.8548 13.2676 12.9111 14.5595 10.0666 16.0455C2.44345 20.015 -0.417233 27.5934 0.0484057 31.4625C0.707677 36.9408 4.42818 39.9082 10.0043 39.4129C13.462 39.1093 17.5906 37.3448 20.7532 34.8088C24.5544 31.7615 26.4769 28.0545 26.168 24.3726C26.0961 23.6203 25.8597 22.8924 25.4751 22.2397C25.0906 21.5869 24.5672 21.0249 23.9412 20.5926C23.1144 20.0142 22.1748 19.613 21.1825 19.4145C20.1903 19.216 19.1671 19.2246 18.1784 19.4398C13.9991 20.3871 10.9195 22.6675 9.50411 25.8518C8.88964 27.2571 8.61352 28.7846 8.69753 30.3137C8.78154 31.8429 9.22339 33.3317 9.98819 34.6627C10.0767 34.818 10.196 34.954 10.339 35.0623C10.482 35.1707 10.6457 35.2492 10.8202 35.2931C10.9948 35.3371 11.1765 35.3455 11.3544 35.318C11.5323 35.2905 11.7027 35.2275 11.8554 35.133C12.1425 34.9452 12.3474 34.6569 12.429 34.3259C12.5107 33.9949 12.463 33.6456 12.2956 33.3479C11.7413 32.378 11.4214 31.2941 11.361 30.1813C11.3006 29.0684 11.5014 27.9569 11.9476 26.9337C13.3145 23.8567 16.4149 22.5716 18.7731 22.0352C19.39 21.9033 20.0277 21.8983 20.6466 22.0204C21.2656 22.1425 21.8526 22.3892 22.3714 22.7451C22.6864 22.9553 22.9515 23.2308 23.1485 23.5523C23.3455 23.8739 23.4697 24.234 23.5125 24.6077C24.0357 30.8256 15.539 36.288 9.77381 36.7947C4.55035 37.2512 3.0497 33.9871 2.70854 31.1657C2.56793 29.9879 2.92292 27.687 4.38899 25.0779C5.9945 22.2272 8.40721 19.9039 11.3298 18.3944C14.096 16.9472 16.9981 15.6758 19.5476 14.5527C23.6393 12.7517 27.1707 11.1949 29.1555 9.44416C30.4994 8.25947 31.7257 7.79381 32.7054 8.10197C33.0544 8.22611 33.3681 8.43183 33.6197 8.70166C33.8713 8.97148 34.0535 9.29745 34.1507 9.65188C34.3305 10.4166 34.0654 15.08 32.4011 21.0468C29.9438 29.8509 26.5022 34.2427 24.0473 36.377C22.1432 38.0319 17.3854 40.6387 13.2131 40.9833C10.931 41.1705 8.73188 40.5839 7.42026 40.2346C6.36681 39.9539 5.60611 39.7507 4.99294 40.4173C4.58954 40.8555 4.25068 41.6727 4.93531 43.0834C6.2285 45.7609 10.6797 49.5843 17.6344 49.1461C19.8061 49.0299 21.9568 48.6629 24.0426 48.0527C29.3698 46.4548 32.408 43.3778 34.8515 40.1799C38.5881 35.2927 39.3903 28.7416 40.2386 21.8069C40.3815 20.6314 40.5313 19.417 40.6996 18.2118C41.6493 11.1173 40.884 6.80543 38.2746 4.64377Z" fill="black"/>
</svg>
